Coordinates
version=1
nRows=30
nColumns=38
inDegrees=no

Units are S.I. units (second, meters, Newtons, ...)
If the header above contains a line with 'inDegrees', this indicates whether rotational values are in degrees (yes) or radians (no).

endheader
time	pelvis_tilt	pelvis_list	pelvis_rotation	pelvis_tx	pelvis_ty	pelvis_tz	hip_flexion_r	hip_adduction_r	hip_rotation_r	knee_angle_r	ankle_angle_r	subtalar_angle_r	mtp_angle_r	hip_flexion_l	hip_adduction_l	hip_rotation_l	knee_angle_l	ankle_angle_l	subtalar_angle_l	mtp_angle_l	lumbar_extension	lumbar_bending	lumbar_rotation	arm_flex_r	arm_add_r	arm_rot_r	elbow_flex_r	pro_sup_r	wrist_flex_r	wrist_dev_r	arm_flex_l	arm_add_l	arm_rot_l	elbow_flex_l	pro_sup_l	wrist_flex_l	wrist_dev_l
0	1.14177	1.56194	0.494259	0.602885	-0.468332	0.941714	0.340139	-0.0671018	-0.362467	0.5484	0.183633	0	0	0.388747	-0.0244041	0.080192	1.41819	-0.107987	0	0	-0.0701757	0.0417681	-0.076639	-0.106568	-0.209126	0.13196	0.608251	1.08384	0	0	-0.109001	-0.257079	0.359246	0.708097	0.830217	0	0
0.01	1.00985	1.56491	0.617065	0.604226	-0.458589	0.943188	0.323706	-0.0645363	-0.356743	0.537502	0.183143	0	0	0.413999	-0.022905	0.0713119	1.41887	-0.108256	0	0	-0.0718629	0.0388645	-0.0661948	-0.100421	-0.212928	0.136356	0.618924	1.07894	0	0	-0.116308	-0.252957	0.357313	0.698688	0.813947	0	0
0.02	0	1.5708	1.61827	0.605513	-0.448495	0.944756	0.304606	-0.0633645	-0.351432	0.52693	0.183986	0	0	0.43449	-0.0212143	0.0615114	1.41439	-0.106688	0	0	-0.0762151	0.0348568	-0.0567077	-0.0940094	-0.216223	0.140417	0.628755	1.07333	0	0	-0.124276	-0.24907	0.353891	0.690647	0.802019	0	0
0.03	-2.11141	1.56382	-2.55999	0.60787	-0.438609	0.946222	0.28615	-0.0601848	-0.340061	0.519649	0.182731	0	0	0.454115	-0.0282501	0.0559376	1.40434	-0.0960236	0	0	-0.0831753	0.025721	-0.0487742	-0.0871162	-0.217781	0.147677	0.637259	1.06654	0	0	-0.131643	-0.247497	0.350723	0.683464	0.793331	0	0
0.04	-2.16402	1.55675	-2.51612	0.608962	-0.428338	0.947575	0.267085	-0.0613949	-0.333066	0.512987	0.185933	0	0	0.469421	-0.026932	0.043844	1.39263	-0.0877941	0	0	-0.0897813	0.019596	-0.0402783	-0.0787641	-0.220567	0.155805	0.645307	1.05623	0	0	-0.139846	-0.244897	0.349359	0.677225	0.78812	0	0
0.05	-2.24148	1.54927	-2.44779	0.610434	-0.418257	0.948981	0.245937	-0.0615255	-0.323694	0.503989	0.187676	0	0	0.481723	-0.0270725	0.0305771	1.37719	-0.0772352	0	0	-0.0979125	0.0135824	-0.0316871	-0.0686809	-0.221205	0.156666	0.648872	1.07216	0	0	-0.147561	-0.24261	0.349095	0.670934	0.785743	0	0
0.06	-2.2573	1.54165	-2.44001	0.611714	-0.408251	0.950179	0.225944	-0.0631166	-0.315724	0.49659	0.189635	0	0	0.493731	-0.0268029	0.0168996	1.35894	-0.0663117	0	0	-0.105484	0.00688893	-0.0246819	-0.0575308	-0.222527	0.163805	0.651569	1.06898	0	0	-0.155719	-0.240944	0.350048	0.666368	0.785754	0	0
0.07	-2.28017	1.53386	-2.42427	0.612813	-0.398257	0.95126	0.205317	-0.0648465	-0.30859	0.489041	0.191699	0	0	0.503814	-0.0269779	0.0032876	1.33773	-0.0545453	0	0	-0.113899	0.000396293	-0.0183612	-0.0453515	-0.223644	0.172425	0.652636	1.0662	0	0	-0.163107	-0.239432	0.352743	0.661824	0.787234	0	0
0.08	-2.29902	1.52626	-2.4119	0.613891	-0.388186	0.952198	0.184464	-0.0666132	-0.301938	0.481271	0.193894	0	0	0.512165	-0.0279645	-0.0110204	1.31297	-0.043274	0	0	-0.122098	-0.00596815	-0.0126195	-0.0326142	-0.224566	0.183037	0.651492	1.06379	0	0	-0.17042	-0.238141	0.356638	0.657599	0.790205	0	0
0.09	-2.3113	1.51919	-2.40635	0.614958	-0.378026	0.952939	0.1642	-0.0682105	-0.294623	0.474069	0.196256	0	0	0.518992	-0.0299511	-0.026599	1.28449	-0.0322886	0	0	-0.128865	-0.0121409	-0.00710896	-0.0197738	-0.225411	0.195086	0.648975	1.06094	0	0	-0.178518	-0.236919	0.361185	0.654342	0.794347	0	0
0.1	-2.32555	1.51243	-2.39689	0.615855	-0.367894	0.953524	0.143906	-0.0698019	-0.288739	0.46714	0.198817	0	0	0.524651	-0.0314397	-0.0408522	1.25316	-0.0221678	0	0	-0.135623	-0.0177286	-0.00365816	-0.00713601	-0.226155	0.207133	0.647221	1.05747	0	0	-0.186656	-0.235908	0.366087	0.6522	0.79898	0	0
0.11	-2.33241	1.50602	-2.39359	0.616582	-0.357724	0.953894	0.124471	-0.0718323	-0.283879	0.461124	0.20229	0	0	0.529392	-0.0324885	-0.0546665	1.21944	-0.0121761	0	0	-0.142331	-0.0230668	-0.00128147	0.0055209	-0.226683	0.218871	0.645432	1.05325	0	0	-0.194725	-0.234849	0.370499	0.650884	0.803181	0	0
0.12	-2.3267	1.50038	-2.40243	0.617074	-0.347615	0.953942	0.107358	-0.0745941	-0.280053	0.457472	0.207922	0	0	0.534132	-0.0331723	-0.0686586	1.18353	-0.00315488	0	0	-0.148153	-0.0281781	0.000984137	0.0175596	-0.22696	0.228719	0.644625	1.04778	0	0	-0.202333	-0.233247	0.374192	0.649955	0.806015	0	0
0.13	-2.3544	1.49355	-2.37761	0.617797	-0.337454	0.954179	0.085358	-0.0757429	-0.274296	0.449901	0.213863	0	0	0.533535	-0.0350163	-0.0841134	1.14402	0.00631924	0	0	-0.156717	-0.032598	0.00201853	0.0324333	-0.224786	0.234257	0.635923	1.07939	0	0	-0.210004	-0.229119	0.367877	0.646313	0.835518	0	0
0.14	-2.36609	1.48754	-2.36954	0.618368	-0.327174	0.954146	0.0661074	-0.0777586	-0.268604	0.445286	0.221264	0	0	0.532911	-0.0373093	-0.101807	1.10235	0.0151706	0	0	-0.163349	-0.0370454	0.00465069	0.0447698	-0.224355	0.244618	0.631518	1.0815	0	0	-0.217101	-0.226372	0.368764	0.644427	0.840016	0	0
0.15	-2.43075	1.48339	-2.31161	0.619031	-0.315929	0.953836	0.0429653	-0.074647	-0.263296	0.439144	0.229657	0	0	0.530349	-0.066109	-0.157019	1.06783	0.02314	0	0	-0.169605	-0.0361948	0.0112133	0.0534069	-0.225394	0.252589	0.63125	1.08314	0	0	-0.226139	-0.222237	0.368691	0.643421	0.842414	0	0
0.16	-2.37246	1.47642	-2.36752	0.619129	-0.306408	0.95366	0.0291084	-0.084022	-0.263066	0.438458	0.238273	0	0	0.528648	-0.0379346	-0.135887	1.01158	0.0318517	0	0	-0.17449	-0.0457377	0.00811232	0.0678094	-0.222261	0.262969	0.62248	1.08501	0	0	-0.230086	-0.219396	0.366327	0.639312	0.845852	0	0
0.17	-2.43345	1.47289	-2.31242	0.619646	-0.294993	0.953118	0.00551531	-0.0808672	-0.259921	0.431654	0.246606	0	0	0.523621	-0.0665055	-0.196959	0.974949	0.0397075	0	0	-0.18027	-0.0440024	0.0144795	0.0751599	-0.223171	0.270997	0.621416	1.0853	0	0	-0.238397	-0.214512	0.366466	0.637938	0.847039	0	0
0.18	-2.37274	1.46475	-2.36962	0.619492	-0.285378	0.952882	-0.00908033	-0.0920797	-0.262309	0.430706	0.255508	0	0	0.516541	-0.0332494	-0.16983	0.908723	0.0454768	0	0	-0.185775	-0.0552336	0.0110355	0.0881479	-0.219044	0.279849	0.612709	1.07898	0	0	-0.240788	-0.211732	0.364881	0.634128	0.845713	0	0
0.19	-2.44377	1.4617	-2.31056	0.619084	-0.273553	0.95219	-0.0354163	-0.0948856	-0.266066	0.42088	0.268604	0	0	0.508866	-0.0543467	-0.235761	0.872367	0.0463272	0	0	-0.191435	-0.0503787	0.0216321	0.0951955	-0.221333	0.287258	0.612318	1.07514	0	0	-0.249282	-0.203705	0.364656	0.632005	0.843809	0	0
0.2	-2.43149	1.45767	-2.32384	0.619053	-0.262785	0.951314	-0.0528043	-0.0993201	-0.267782	0.41709	0.277431	0	0	0.502932	-0.0515269	-0.255132	0.819273	0.0496225	0	0	-0.194346	-0.0543703	0.0244243	0.101972	-0.219741	0.29265	0.609553	1.06976	0	0	-0.253316	-0.199088	0.364992	0.628265	0.840804	0	0
0.21	-2.3468	1.4516	-2.39948	0.619353	-0.253071	0.950379	-0.0614771	-0.1051	-0.265949	0.420076	0.28199	0	0	0.494431	-0.0208934	-0.222425	0.741431	0.0517536	0	0	-0.195425	-0.0676461	0.0200818	0.109168	-0.213071	0.291	0.60307	1.07353	0	0	-0.252933	-0.197514	0.363546	0.622503	0.842003	0	0
0.22	-2.34591	1.44805	-2.40713	0.618513	-0.241883	0.949266	-0.0799041	-0.116699	-0.276477	0.415735	0.296534	0	0	0.485365	-0.008519	-0.233414	0.68361	0.0432274	0	0	-0.19755	-0.0694951	0.0257714	0.116509	-0.211131	0.291729	0.598471	1.077	0	0	-0.257776	-0.190259	0.362301	0.617827	0.842726	0	0
0.23	-2.33314	1.44273	-2.42208	0.618369	-0.23073	0.948047	-0.0974793	-0.123602	-0.279136	0.413294	0.306494	0	0	0.473744	-0.0019491	-0.25086	0.622335	0.0383402	0	0	-0.200092	-0.0751936	0.0300981	0.121913	-0.208431	0.293217	0.593982	1.08061	0	0	-0.260748	-0.185097	0.360494	0.613559	0.843306	0	0
0.24	-2.31576	1.43926	-2.44218	0.618131	-0.219469	0.946506	-0.112516	-0.129902	-0.281255	0.411898	0.316355	0	0	0.46361	0.00456051	-0.266849	0.561175	0.0323626	0	0	-0.200245	-0.0797525	0.0352469	0.126193	-0.206268	0.295428	0.590075	1.08147	0	0	-0.263462	-0.179584	0.35977	0.608537	0.843426	0	0
0.25	-2.29367	1.43618	-2.46765	0.617862	-0.208147	0.944769	-0.125556	-0.137047	-0.283207	0.412675	0.326639	0	0	0.45356	0.012187	-0.281311	0.499411	0.0268054	0	0	-0.199256	-0.0845677	0.0411778	0.129948	-0.204253	0.297703	0.585999	1.08174	0	0	-0.265701	-0.174044	0.359852	0.602462	0.843543	0	0
0.26	-2.26679	1.43372	-2.49848	0.617546	-0.196764	0.942826	-0.136548	-0.144758	-0.285101	0.415084	0.336891	0	0	0.443974	0.0208552	-0.292571	0.437726	0.0238684	0	0	-0.197088	-0.0893604	0.0477734	0.133306	-0.20242	0.300322	0.581801	1.08154	0	0	-0.26782	-0.168575	0.359827	0.596862	0.843827	0	0
0.27	-2.2369	1.43183	-2.53294	0.617151	-0.185284	0.9407	-0.145766	-0.1529	-0.286701	0.419235	0.34711	0	0	0.434449	0.0303527	-0.299733	0.37616	0.0249122	0	0	-0.193785	-0.0939113	0.0545824	0.136586	-0.200849	0.30368	0.577648	1.08146	0	0	-0.270009	-0.163001	0.359616	0.591672	0.844298	0	0
0.28	-2.20576	1.42751	-2.56962	0.616666	-0.173597	0.938602	-0.155656	-0.164506	-0.289576	0.424829	0.358181	0	0	0.419829	0.0443013	-0.299758	0.308281	0.0265872	0	0	-0.191168	-0.10088	0.0614419	0.140132	-0.200899	0.317843	0.574194	1.05983	0	0	-0.272554	-0.158927	0.363963	0.588388	0.828205	0	0
0.29	-2.17266	1.42834	-2.60697	0.616067	-0.161829	0.9361	-0.162312	-0.170453	-0.290193	0.429534	0.366683	0	0	0.412324	0.0527873	-0.295239	0.251102	0.0363934	0	0	-0.184837	-0.103027	0.0684521	0.141124	-0.199802	0.31925	0.570921	1.06465	0	0	-0.275326	-0.153091	0.36149	0.583342	0.83089	0	0
